<?xml version="1.0" encoding="utf-8"?>
<!-- Svg Vector Icons : http://www.onlinewebfonts.com/icon -->
<!DOCTYPE svg PUBLIC "-//W3C//DTD SVG 1.1//EN" "http://www.w3.org/Graphics/SVG/1.1/DTD/svg11.dtd">
<svg version="1.1" xmlns="http://www.w3.org/2000/svg" xmlns:xlink="http://www.w3.org/1999/xlink" x="0px" y="0px" viewBox="0 0 1000 1000" enable-background="new 0 0 1000 1000" xml:space="preserve">
<metadata> Svg Vector Icons : http://www.onlinewebfonts.com/icon </metadata>
<g><g><path id="Twitter" d="M742.4,745H500.6c-33.6,0-62.2-11.8-85.7-35.4c-23.6-23.6-35.3-52.2-35.3-86v-86.1h344.6c31.1,0,57.8-11.2,80.1-33.3c22.2-22.4,33.4-49.1,33.4-80.2c0-31.2-11.2-57.9-33.5-80.2c-22.3-22.2-49.2-33.4-80.4-33.4H379.6V132.5c0-33.6-12-62.4-35.8-86.4c-23.7-24-52.4-36.1-85.7-36.1c-34.3,0-63.4,11.9-87.2,35.4C147.1,69,135.2,98,135.2,132.7v491c0,101,35.7,187.2,107.1,258.9C313.8,954.2,400,990,500.7,990h241.8c33.6,0,62.4-12.1,86.3-36.1c24-23.9,36-52.8,36-86.4c0-33.6-12-62.4-36-86.5C804.9,757.1,776,745,742.4,745z"/></g><g></g><g></g><g></g><g></g><g></g><g></g><g></g><g></g><g></g><g></g><g></g><g></g><g></g><g></g><g></g></g>
</svg>